<svg width="24" height="24" viewBox="0 0 24 24" fill="none" xmlns="http://www.w3.org/2000/svg">
<path fill-rule="evenodd" clip-rule="evenodd" d="M20.8285 7.15653C20.9384 7.26772 21 7.41772 21 7.57403C21 7.73034 20.9384 7.88035 20.8285 7.99153L12.4005 16.8205C12.3502 16.8769 12.2886 16.922 12.2197 16.9529C12.1507 16.9838 12.0761 16.9997 12.0005 16.9997C11.925 16.9997 11.8503 16.9838 11.7814 16.9529C11.7124 16.922 11.6508 16.8769 11.6005 16.8205L3.17253 8.02053C3.06332 7.90908 3.00165 7.75957 3.00053 7.60353C3.00123 7.44741 3.06296 7.29775 3.17253 7.18653C3.22281 7.13016 3.28444 7.08505 3.35337 7.05417C3.42231 7.02328 3.49699 7.00732 3.57253 7.00732C3.64807 7.00732 3.72275 7.02328 3.79169 7.05417C3.86062 7.08505 3.92225 7.13016 3.97253 7.18653L12.0015 15.5375L20.0305 7.15453C20.1397 7.05459 20.2824 6.99933 20.4304 6.9997C20.5784 7.00007 20.7209 7.05605 20.8295 7.15653L20.8285 7.15653Z" fill="black"/>
</svg>
